<?xml version="1.0" standalone="no"?>
<!DOCTYPE svg PUBLIC "-//W3C//DTD SVG 20010904//EN"
 "http://www.w3.org/TR/2001/REC-SVG-20010904/DTD/svg10.dtd">
<svg version="1.0" xmlns="http://www.w3.org/2000/svg"
 width="450.000000pt" height="425.000000pt" viewBox="0 0 450.000000 425.000000"
 preserveAspectRatio="xMidYMid meet">

<g transform="translate(0.000000,425.000000) scale(0.100000,-0.100000)"
fill="#000000" stroke="none">
<path d="M1765 3586 c-79 -36 -97 -88 -101 -291 -2 -154 -4 -162 -33 -226 -16
-37 -35 -87 -42 -113 l-11 -46 -112 0 c-96 0 -118 -3 -161 -24 -89 -42 -125
-102 -125 -210 0 -78 11 -111 52 -153 l30 -31 -11 -65 c-37 -214 9 -400 130
-519 l58 -56 -35 -79 c-65 -153 -78 -218 -78 -413 0 -156 2 -181 22 -234 61
-165 209 -296 397 -352 128 -38 287 -17 384 50 l36 25 83 -16 c77 -15 88 -15
158 0 l76 16 32 -24 c83 -63 190 -85 304 -61 90 19 159 55 232 123 163 150
213 452 116 694 -14 36 -26 69 -26 73 0 5 11 22 26 38 32 39 73 119 89 177 60
212 -21 423 -196 511 -24 12 -45 23 -47 25 -1 1 9 27 23 58 66 143 71 350 14
521 -20 59 -20 63 -4 161 31 191 22 297 -31 346 -21 20 -36 24 -84 24 -56 0
-64 -3 -149 -62 l-90 -62 -47 20 c-124 55 -373 75 -528 43 l-77 -16 -65 61
c-94 89 -152 113 -209 87z m95 -62 c14 -10 46 -37 72 -62 l47 -45 -72 -43
c-40 -23 -98 -67 -130 -98 -31 -31 -59 -56 -62 -56 -8 0 -5 108 5 188 12 92
37 132 83 132 18 0 44 -7 57 -16z m1122 -85 l31 -30 -6 -112 c-3 -62 -10 -125
-15 -141 l-8 -30 -21 35 c-27 42 -125 140 -175 174 -21 14 -38 27 -38 29 0 6
119 86 142 95 39 16 58 12 90 -20z m-462 -44 c36 -9 106 -36 157 -60 198 -96
323 -279 352 -515 26 -202 -33 -382 -161 -494 -132 -115 -344 -167 -595 -145
-181 16 -309 54 -427 129 -166 105 -246 267 -233 470 8 113 28 187 79 290 91
182 257 298 486 340 66 12 264 3 342 -15z m-959 -665 c4 -69 11 -140 17 -159
10 -29 9 -34 -8 -38 -25 -7 -26 -43 -2 -49 14 -4 17 -17 17 -87 0 -73 4 -90
32 -148 65 -132 219 -238 418 -288 39 -10 40 -12 41 -56 2 -60 36 -109 98
-140 56 -28 81 -30 139 -13 57 17 104 65 119 121 12 46 13 47 53 47 69 1 217
38 291 75 40 19 94 55 121 79 58 52 110 145 119 210 4 25 12 46 18 46 23 0 95
-62 126 -107 134 -203 33 -522 -195 -618 -55 -23 -162 -31 -211 -15 -83 26
-134 86 -134 155 0 67 39 114 120 145 47 18 60 29 53 46 -18 47 -168 -30 -208
-107 -10 -18 -33 -33 -72 -48 -79 -29 -146 -80 -187 -144 -46 -69 -146 -364
-146 -430 l0 -48 -32 17 c-18 10 -46 20 -63 24 l-30 6 -6 94 c-4 73 -11 108
-31 152 -33 71 -93 136 -158 172 -91 50 -134 15 -45 -37 70 -40 130 -102 154
-156 24 -56 36 -137 27 -185 -6 -29 -12 -36 -39 -41 -61 -12 -125 -36 -138
-51 -10 -12 -9 -18 2 -29 13 -13 22 -12 69 6 68 27 171 29 217 6 55 -29 76
-65 71 -125 -10 -115 -108 -191 -258 -200 -91 -5 -147 10 -162 43 -13 30 -58
40 -58 14 0 -24 -1 -24 -58 5 -117 59 -199 151 -244 271 -19 53 -22 79 -22
215 1 126 5 170 22 232 29 108 76 214 129 298 43 67 45 72 29 88 -16 16 -19
15 -47 -18 -16 -19 -29 -38 -29 -42 0 -21 -32 -3 -74 42 -92 99 -130 241 -109
410 7 49 14 94 18 100 3 5 26 10 49 10 44 0 74 19 61 40 -3 5 -23 10 -43 10
-105 0 -152 43 -152 137 0 89 31 140 105 174 31 15 59 18 130 16 l90 -2 6
-125z m114 -340 c39 -52 133 -124 218 -166 186 -94 496 -127 722 -78 102 23
239 92 304 155 l54 51 -6 -46 c-19 -140 -148 -259 -330 -306 -94 -24 -207 -36
-207 -22 0 21 -55 75 -95 93 -75 34 -160 18 -215 -41 l-27 -29 -69 19 c-171
49 -311 147 -359 252 -25 55 -44 158 -29 158 5 -1 23 -19 39 -40z m655 -378
c14 -10 33 -35 43 -55 16 -31 17 -42 7 -72 -12 -38 -62 -85 -89 -85 -14 0 -16
10 -16 58 0 50 -2 57 -20 57 -16 0 -22 -10 -30 -57 l-10 -56 -26 13 c-37 20
-59 58 -59 103 0 97 119 153 200 94z m241 -310 c9 -44 52 -107 88 -128 25 -15
28 -22 24 -49 -7 -43 20 -55 43 -20 15 23 22 25 103 25 47 1 103 7 124 14 37
14 39 13 48 -11 22 -60 11 -146 -41 -299 -58 -170 -93 -230 -166 -280 -125
-87 -298 -84 -428 5 -91 63 -145 175 -131 269 8 53 85 285 116 349 25 51 96
118 152 144 52 23 60 21 68 -19z m548 -144 c31 -79 40 -133 41 -234 0 -100
-24 -214 -61 -285 -34 -67 -121 -152 -195 -190 -56 -28 -79 -34 -152 -37 -56
-2 -98 1 -117 9 l-30 12 55 9 c110 17 223 92 275 182 37 65 126 335 131 401 4
39 0 77 -9 108 -15 45 -14 48 6 62 12 8 24 15 28 15 4 0 16 -24 28 -52z m-837
-599 c23 -22 56 -48 73 -57 l30 -17 -52 -3 c-29 -2 -70 2 -91 7 l-39 11 16 50
c9 27 17 50 18 50 2 0 22 -18 45 -41z"/>
<path d="M2047 3204 c-12 -13 -8 -62 6 -67 21 -8 35 6 39 38 2 24 -1 31 -17
33 -12 2 -24 0 -28 -4z"/>
<path d="M1912 3188 c-12 -16 2 -56 23 -65 28 -10 39 12 25 46 -13 33 -31 39
-48 19z"/>
<path d="M2617 3163 c-14 -13 -7 -64 9 -70 24 -9 48 21 40 51 -6 25 -33 35
-49 19z"/>
<path d="M2750 3117 c-11 -12 -19 -28 -18 -37 5 -22 37 -24 53 -3 33 43 1 79
-35 40z"/>
<path d="M1985 3024 c-109 -24 -140 -43 -114 -70 13 -13 20 -13 58 1 68 23
135 19 192 -12 39 -21 52 -24 62 -14 39 39 -114 113 -198 95z"/>
<path d="M2606 2969 c-69 -11 -106 -28 -106 -50 0 -28 17 -32 65 -14 61 24
150 17 194 -14 35 -25 61 -22 61 7 0 23 -78 67 -130 74 -19 3 -57 1 -84 -3z"/>
<path d="M2275 2840 c-4 -6 1 -20 10 -30 16 -17 15 -21 -3 -62 -24 -54 -43
-70 -78 -66 -21 2 -30 10 -34 28 -7 29 -47 40 -56 16 -8 -22 14 -74 37 -86 29
-16 92 -11 127 10 17 11 32 24 32 30 0 19 17 10 28 -16 13 -27 66 -54 107 -54
32 0 85 50 85 80 0 29 -30 38 -46 14 -27 -39 -36 -45 -57 -38 -35 10 -55 36
-65 82 -8 34 -7 44 5 51 8 4 13 17 11 27 -2 15 -13 20 -50 22 -26 2 -49 -2
-53 -8z"/>
<path d="M1680 2771 c0 -27 18 -38 88 -56 80 -21 127 -17 127 9 0 16 -12 22
-65 32 -36 7 -78 17 -93 23 -41 16 -57 14 -57 -8z"/>
<path d="M2855 2661 c-81 -5 -90 -8 -90 -26 0 -26 50 -37 132 -29 74 7 104 24
84 48 -7 9 -19 15 -25 14 -6 -1 -51 -4 -101 -7z"/>
<path d="M1677 2634 c-19 -19 -5 -41 32 -52 52 -16 156 -15 169 1 19 23 -2 34
-78 40 -41 4 -84 9 -95 12 -11 3 -24 3 -28 -1z"/>
<path d="M2750 2511 c0 -26 28 -38 105 -47 74 -9 107 0 103 29 -3 19 -9 22
-48 22 -25 1 -71 5 -102 9 -55 8 -58 7 -58 -13z"/>
<path d="M1316 2715 c-9 -24 -7 -98 3 -113 5 -8 17 -12 27 -10 16 3 19 13 19
68 0 59 -2 65 -21 68 -13 2 -24 -4 -28 -13z"/>
<path d="M1444 2717 c-3 -8 -4 -39 -2 -68 3 -46 6 -54 23 -54 18 0 20 7 20 65
0 54 -3 65 -18 68 -9 2 -20 -3 -23 -11z"/>
<path d="M2514 1515 c-7 -17 12 -45 30 -45 7 0 21 -6 31 -14 18 -13 17 -15
-16 -45 -20 -18 -50 -34 -71 -38 -45 -7 -66 -27 -49 -47 13 -15 85 -6 120 16
17 10 30 7 91 -22 38 -19 70 -38 70 -42 0 -5 -7 -23 -16 -40 -14 -28 -14 -32
0 -46 11 -12 19 -13 27 -5 19 19 57 110 50 120 -3 6 -41 28 -83 49 -62 31 -75
42 -68 54 8 13 21 9 85 -23 82 -40 100 -44 108 -24 9 23 -4 33 -140 101 -139
69 -160 76 -169 51z"/>
<path d="M2463 1293 c-26 -9 -13 -43 22 -60 33 -16 43 -32 29 -46 -4 -3 -28 5
-55 18 -71 37 -81 34 -113 -33 -29 -61 -31 -97 -6 -97 12 0 51 55 63 88 4 12
77 -24 77 -38 0 -23 -14 -25 -37 -3 -21 20 -25 20 -39 6 -14 -14 -12 -20 16
-67 39 -63 56 -63 90 1 l25 46 42 -22 c33 -16 40 -24 32 -36 -8 -13 -11 -13
-23 3 -16 21 -45 22 -52 3 -3 -8 7 -34 22 -58 29 -46 43 -60 56 -52 12 8 68
121 68 137 0 7 -27 26 -60 42 -41 20 -59 33 -55 43 3 7 5 16 5 18 0 2 18 -5
41 -16 45 -23 69 -21 69 7 0 13 -29 33 -102 69 -57 28 -109 49 -115 47z"/>
</g>
</svg>
